<svg width="82" height="82" viewBox="0 0 82 82" fill="none" xmlns="http://www.w3.org/2000/svg">
<rect width="82" height="82" rx="20" fill="#0B1215"/>
<path d="M58.144 48.2441C58.144 46.9404 58.0415 45.915 57.8364 45.168C57.6313 44.4209 57.1699 43.8716 56.4521 43.52C55.7344 43.1538 54.6211 42.9194 53.1123 42.8169C51.6035 42.6997 49.5381 42.6191 46.916 42.5752L34.6992 42.3994C31.6816 42.3555 29.2573 42.1724 27.4263 41.8501C25.5952 41.5278 24.2109 41.0225 23.2734 40.334C22.3359 39.6309 21.7061 38.6934 21.3838 37.5215C21.0762 36.3496 20.9224 34.8848 20.9224 33.127C20.9224 31.208 21.1348 29.626 21.5596 28.3809C21.999 27.1357 22.7827 26.1616 23.9106 25.4585C25.0532 24.7554 26.6646 24.2646 28.7446 23.9863C30.8247 23.6934 33.5127 23.5469 36.8086 23.5469H46.2129C49.2012 23.5469 51.6914 23.6421 53.6836 23.8325C55.6758 24.0229 57.2578 24.4624 58.4297 25.1509C59.6016 25.8394 60.4365 26.9087 60.9346 28.3589C61.4473 29.8091 61.7036 31.8013 61.7036 34.3354H57.4849C57.4849 32.3726 57.2944 30.8931 56.9136 29.897C56.5474 28.8862 55.9321 28.1978 55.0679 27.8315C54.2183 27.4653 53.0684 27.2676 51.6182 27.2383C50.168 27.209 48.3662 27.1943 46.2129 27.1943H37.0283C34.4062 27.1943 32.3042 27.2456 30.7222 27.3481C29.1548 27.4507 27.9683 27.6851 27.1626 28.0513C26.3569 28.4175 25.8149 29.0034 25.5366 29.8091C25.2729 30.6147 25.1411 31.7207 25.1411 33.127C25.1411 34.3135 25.2363 35.2656 25.4268 35.9834C25.6172 36.7012 26.042 37.2505 26.7012 37.6313C27.375 37.9976 28.4077 38.2539 29.7993 38.4004C31.1909 38.5322 33.0879 38.6128 35.4902 38.6421L48.5859 38.8179C51.6621 38.8618 54.1157 39.0449 55.9468 39.3672C57.7925 39.6748 59.1694 40.1802 60.0776 40.8833C61.0005 41.5864 61.6084 42.5386 61.9014 43.7397C62.209 44.9263 62.3628 46.4277 62.3628 48.2441C62.3628 50.2217 62.1724 51.8843 61.7915 53.2319C61.4253 54.5649 60.7075 55.6343 59.6382 56.4399C58.5688 57.2456 57.0234 57.8242 55.002 58.1758C52.9805 58.5273 50.3218 58.7031 47.0259 58.7031H36.7427C33.7397 58.7031 31.2202 58.5713 29.1841 58.3076C27.1479 58.0439 25.522 57.5166 24.3062 56.7256C23.105 55.9199 22.2407 54.7261 21.7134 53.144C21.186 51.562 20.9224 49.4526 20.9224 46.8159H25.1411C25.1411 48.8813 25.3096 50.478 25.6465 51.606C25.9834 52.7339 26.5693 53.5469 27.4043 54.0449C28.2539 54.5283 29.4331 54.8213 30.9419 54.9238C32.4653 55.0117 34.3989 55.0557 36.7427 55.0557H46.8062C49.4282 55.0557 51.501 54.9751 53.0244 54.814C54.5479 54.6382 55.6758 54.3159 56.4082 53.8472C57.1406 53.3638 57.6094 52.6753 57.8145 51.7817C58.0342 50.8882 58.144 49.709 58.144 48.2441Z" fill="#F8F8FF"/>
</svg>
